# xmcd CD database file
#
# Track frame offsets:
#	150
#	9490
#	28917
#	43843
#
# Disc length: 746 seconds
#
# Revision: 0
# Processed by: cddbd v1.5.1PL0 Copyright (c) Steve Scherf et al.
# Submitted via: CDex 1.51
#
DISCID=2c02e804
DTITLE=ポリバケツ - TEMP DISC 2
DYEAR=1900
DGENRE=未分類 (日本)
TTITLE0=Intro
TTITLE1=Stumble Cart
TTITLE2=Book of Dreamer
TTITLE3=Scrap*
EXTD=
EXTT0=
EXTT1=
EXTT2=
EXTT3=
PLAYORDER=
